<svg xmlns="http://www.w3.org/2000/svg" viewBox="0 0 700 700"><path fill="none" stroke="#000000" stroke-width="10" stroke-linejoin="round" stroke-linecap="round" d="M570.975 432.013c-5.487-35.663-22.21-67.146-27.375-76.96-5.165-9.814-11.879-29.44-9.994-57.022 1.886-27.58-10.667-107.228-74.713-158.358-64.047-51.134-123.231-67.04-131.191-72.31-8.63-5.71-43.386-21.694-51.592-25.516-8.205-3.823-41.38-8.058-56.26-9.956s-30.572 3.447-36.592 3.495c-6.021.046-39.95-10.377-45.114-10.377s-2.066 5.164-1.55 8.264c.518 3.099 11.41 23.365 11.41 23.365s-11.926-.122-12.442 2.46 14.176 13.627 14.176 13.627-6.946 22.529-7.306 27.615c-.362 5.086 6.559 22.289 7.592 26.937 1.033 4.648 0 15.496 0 15.496l5.131 5.236s8.814 6.127 10.88 7.16c2.066 1.033 9.028-.14 9.028-.14 5.412 1.925 22.996-7.609 32.293-13.29 9.297-5.681 22.21-7.23 25.935-7.259 3.725-.027 7.121 11.909 6.966 15.81-.157 3.904 3.255 18.308 4.287 22.957 1.034 4.648-4.809 13.908-4.809 13.908-5.327-2.619-12.752-5.128-17.4-6.678-4.65-1.55-19.11-11.879-23.243-12.912s-7.748-1.55-15.082-3.57c-7.334-2.022-31.404-7.277-36.572-6.606-5.166.67-18.59 8.11-20.484 15.708-1.891 7.599 8.608 15.128 12.74 16.678 4.132 1.549 17.045-1.55 21.59-1.08 4.546.47 7.449 4.209 7.449 4.209 16.127.545 23.645 10.3 32.941 18.564s53.2 32.54 59.399 33.573 23.24-3.31 23.24-3.31 5.167 20.871 7.233 33.267c2.066 12.396-6.714 52.685-7.747 60.432-1.033 7.748-1.29 17.56-3.228 20.144-1.58 2.107-3.228 1.678-11.799 2.973-10.264 1.55-21.548 16.667-21.128 23.368.516 8.265 9.477 10.732 13.474 10.732h14.159c6.198 0 23.759-2.467 23.759-2.467l27.892 2.467h168.438c16.815 0 33.495 34.282 36.356 60.03 3.099 27.89-16.285 100.647-28.408 126.55-11.363 24.275-36.441 51.587-60.431 56.815-40.288 8.78-67.663-17.561-87.807-13.947-18.33 3.291-14.463 23.76-6.198 32.025 7.625 7.626 73.396 30.338 116.725 16.527 47.002-14.978 75.082-69.865 90.389-114.15 14.485-41.867 21.199-84.22 15-124.507m-220.738-77.084c-9.813 3.614-18.077 9.296-24.275 7.748-6.198-1.55-8.78 3.098-13.946 1.548 0 0 5.165-15.495 10.321-24.34 5.155-8.848 12.121-37.66 12.121-37.66 1.783 10.827 12.164 27.91 19.911 38.241 7.748 10.33 5.682 10.848-4.132 14.463"/></svg>
